<?xml version="1.0" encoding="utf-8"?>
<!-- Generator: Adobe Illustrator 19.2.1, SVG Export Plug-In . SVG Version: 6.00 Build 0)  -->
<svg version="1.1" id="Layer_1" xmlns="http://www.w3.org/2000/svg" xmlns:xlink="http://www.w3.org/1999/xlink" x="0px" y="0px"
	 viewBox="0 0 810 810" style="enable-background:new 0 0 810 810;" xml:space="preserve">
<style type="text/css">
	.st0{opacity:0.35;}
	.st1{fill:#FFFFFF;}
</style>
<image style="overflow:visible;" width="810" height="810" xlink:href="Mammogram_Left_Abnormal_Patient3-Brittany.jpg" >
</image>
<circle class="st0" cx="154.6" cy="281.6" r="79.9"/>
<path class="st1" d="M154.6,369.5c-48.6,0-87.9-39.4-87.9-87.9s39.4-87.9,87.9-87.9s87.9,39.4,87.9,87.9l0,0
	C242.5,330.1,203.2,369.5,154.6,369.5z M154.6,206.7c-41.4,0-74.9,33.5-74.9,74.9s33.5,74.9,74.9,74.9s74.9-33.5,74.9-74.9l0,0
	C229.5,240.2,196,206.7,154.6,206.7z"/>
<path class="st1" d="M62,189l10,10c45.6-45.6,119.6-45.6,165.2,0s45.6,119.6,0,165.2l10,10c50.4-51.9,49.1-134.8-2.8-185.2
	C193.6,139.7,112.8,139.7,62,189z"/>
<polygon class="st1" points="97,360 90,347 81,326.6 62,304 82,263 114,226 162,203 195,203 224,217 239,248 246,274 217,307 
	187,335 158,354 119,365 "/>
</svg>
