<?xml version="1.0" encoding="utf-8"?>
<!-- Generator: Adobe Illustrator 19.2.1, SVG Export Plug-In . SVG Version: 6.00 Build 0)  -->
<svg version="1.1" id="Layer_1" xmlns="http://www.w3.org/2000/svg" xmlns:xlink="http://www.w3.org/1999/xlink" x="0px" y="0px"
	 viewBox="0 0 810 810" style="enable-background:new 0 0 810 810;" xml:space="preserve">
<style type="text/css">
	.st0{opacity:0.35;}
	.st1{fill:#FFFFFF;}
	.st2{fill:none;}
</style>
<image style="overflow:visible;" width="810" height="810" xlink:href="../../../../Desktop/discovery assetsfinal/_web_ready/_Re-Sized_Interactive Images/810x810/Mammogram_Right_Abnormal_Patient1-Velma.jpg" >
</image>
<ellipse class="st0" cx="606.7" cy="656.5" rx="68.1" ry="68.8"/>
<path class="st1" d="M606.7,732.1c-41.4,0-74.9-33.9-74.9-75.6s33.6-75.6,74.9-75.6s74.9,33.9,74.9,75.6l0,0
	C681.6,698.2,648,732.1,606.7,732.1z M606.7,592c-35.3,0-63.8,28.9-63.8,64.4s28.6,64.4,63.8,64.4c35.3,0,63.8-28.9,63.8-64.4l0,0
	C670.5,620.9,641.9,592.1,606.7,592z"/>
<path class="st1" d="M527.7,576.8l8.5,8.6c38.9-39.3,102-39.3,140.8,0s38.9,102.9,0,142.2l8.5,8.6c42.9-44.7,41.9-116-2.4-159.3
	C639.9,534.4,571,534.4,527.7,576.8z"/>
<polygon class="st2" points="531.7,717 527.7,665 542.8,607 580,578 619,566 654,573 688.1,598.6 706,632 711,680 670.5,696.1 
	626.6,717.7 577,739 559,739 "/>
</svg>
