<?xml version="1.0" encoding="utf-8"?>
<!-- Generator: Adobe Illustrator 16.2.1, SVG Export Plug-In . SVG Version: 6.00 Build 0)  -->
<!DOCTYPE svg PUBLIC "-//W3C//DTD SVG 1.1//EN" "http://www.w3.org/Graphics/SVG/1.1/DTD/svg11.dtd">
<svg version="1.1" id="Layer_1" xmlns="http://www.w3.org/2000/svg" xmlns:xlink="http://www.w3.org/1999/xlink" x="0px" y="0px"
	 width="612px" height="792px" viewBox="0 0 612 792" enable-background="new 0 0 612 792" xml:space="preserve">
<image overflow="visible" width="639" height="225" xlink:href="Screen Shot 2016-05-31 at 2.01.09 PM.png"  transform="matrix(1 0 0 1 -14 283)">
</image>
<polyline fill="#FFFFFF" points="78.25,442 83.75,440.75 88.25,436 89.5,432 89.5,426.75 86,422.25 81.75,420 76.25,420 70.75,420 
	68,425.5 66.25,429.75 66.25,434.75 70.75,438.25 "/>
<polyline fill="#FFFFFF" points="153.75,445.25 162.25,440.5 166.75,432.75 169.75,422.75 171.5,407.25 166.25,402.25 162.625,396 
	152.25,401.75 146.5,415 144.5,426.75 144.5,436.25 "/>
<polyline fill="#FFFFFF" points="305.5,458 315.25,459.5 325.25,455 335,449.75 339.75,441.5 341.75,432.25 341.75,421.75 
	341.75,406.5 338.75,393.5 332.5,381.5 323.625,373 313.25,368.5 309.75,367 307.5,364.25 301.75,367.75 293.5,370 284.5,374.5 
	276.5,381.75 271.75,393.5 268.5,403.5 265.25,413.25 265.25,424.75 267,434.5 272.75,445.25 279.75,453.25 290.25,457.75 
	298.75,459.5 "/>
<polyline fill="#FFFFFF" points="497.75,466 506.25,464.75 510.75,460.5 515.25,463.25 521.75,460.5 534.75,456.5 547.75,444.25 
	556.25,433.25 561,422.25 563.5,409.75 564.5,396 561.75,384.5 557,372 553.25,360.5 545.25,351.5 535.75,344.75 530,342 
	522.5,337.75 519.5,339.25 517,335.75 510.25,338.25 503.25,337.5 497.75,340.25 489.75,345.25 480,351 469.25,363.25 462.5,373.75 
	456.5,389.25 454.5,400.875 454.5,413 456.5,427 462,437.75 472.25,449.25 "/>
</svg>
