<?xml version="1.0" encoding="utf-8"?>
<!-- Generator: Adobe Illustrator 19.0.0, SVG Export Plug-In . SVG Version: 6.00 Build 0)  -->
<svg version="1.1" id="Layer_1" xmlns="http://www.w3.org/2000/svg" xmlns:xlink="http://www.w3.org/1999/xlink" x="0px" y="0px"
	 viewBox="0 0 1000 1000" style="enable-background:new 0 0 1000 1000;" xml:space="preserve">
<style type="text/css">
	.st0{fill:none;stroke:#DF297C;stroke-width:20;stroke-linecap:round;stroke-miterlimit:10;}
	.st1{display:none;fill:none;stroke:#000000;stroke-width:15;stroke-linecap:round;stroke-miterlimit:10;}
</style>
<circle id="XMLID_2_" class="st0" cx="504" cy="591.8" r="44.2"/>
<path id="XMLID_6_" class="st1" d="M513.2,619.3c-3.1,2.9-7.3,4.6-11.9,4.6c-9.7,0-17.6-7.9-17.6-17.6c0-5.1,2.2-9.7,5.7-13"/>
<path id="XMLID_3_" class="st0" d="M504.8,509L504.8,509c-24.3,0-44.2-19.9-44.2-44.2V293c0-24.3,19.9-44.2,44.2-44.2h0
	c24.3,0,44.2,19.9,44.2,44.2v171.7C549,489.1,529.1,509,504.8,509z"/>
<path id="XMLID_1_" class="st1" d="M503.3,495.9c-12-3.4-17.6-12.2-17.6-31.1V304.2"/>
<path id="XMLID_4_" class="st0" d="M409.1,305.3c-69.8,34.9-117.8,107-117.8,190.3c0,117.4,95.2,212.6,212.6,212.6
	S716.6,613,716.6,495.6c0-82.4-46.8-153.8-115.3-189.1"/>
</svg>
