<svg id="Layer_1" xmlns="http://www.w3.org/2000/svg" xmlns:xlink="http://www.w3.org/1999/xlink" viewBox="0 0 810 810"><style>.st0{opacity:.35}.st1{fill:#fff}</style><image width="810" height="810" xlink:href="Mammogram_Left_Abnormal_Patient2-Michele.jpg" overflow="visible"/><circle class="st0" cx="147.1" cy="587.8" r="44.1"/><path class="st1" d="M147.1 636.3c-26.8 0-48.5-21.7-48.5-48.5s21.7-48.5 48.5-48.5 48.5 21.7 48.5 48.5-21.7 48.5-48.5 48.5zm0-89.8c-22.8 0-41.3 18.5-41.3 41.3s18.5 41.3 41.3 41.3 41.3-18.5 41.3-41.3c0-22.8-18.5-41.3-41.3-41.3z"/><path class="st1" d="M96 536.7l5.5 5.5c25.2-25.2 66-25.2 91.2 0s25.2 66 0 91.2l5.5 5.5c27.8-28.6 27.1-74.4-1.5-102.2-28.1-27.2-72.7-27.2-100.7 0z"/><path class="st1" d="M168 630l21-17 3-21-9-19-18-22-27-15-9 8-15 10.8-16 9.8V583l24 26 17 18z"/></svg>