<svg id="Layer_1" xmlns="http://www.w3.org/2000/svg" xmlns:xlink="http://www.w3.org/1999/xlink" viewBox="0 0 810 810"><style>.st0{opacity:.35}.st1{fill:#fff}</style><image width="810" height="810" xlink:href="Mammogram_Left_Abnormal_Patient3-Brittany.jpg" overflow="visible"/><circle class="st0" cx="154.6" cy="281.6" r="79.9"/><path class="st1" d="M154.6 369.5c-48.6 0-87.9-39.4-87.9-87.9s39.4-87.9 87.9-87.9 87.9 39.4 87.9 87.9c0 48.5-39.3 87.9-87.9 87.9zm0-162.8c-41.4 0-74.9 33.5-74.9 74.9s33.5 74.9 74.9 74.9 74.9-33.5 74.9-74.9c0-41.4-33.5-74.9-74.9-74.9z"/><path class="st1" d="M62 189l10 10c45.6-45.6 119.6-45.6 165.2 0s45.6 119.6 0 165.2l10 10c50.4-51.9 49.1-134.8-2.8-185.2-50.8-49.3-131.6-49.3-182.4 0z"/><path class="st1" d="M97 360l-7-13-9-20.4L62 304l20-41 32-37 48-23h33l29 14 15 31 7 26-29 33-30 28-29 19-39 11z"/></svg>