<svg xmlns="http://www.w3.org/2000/svg" xmlns:xlink="http://www.w3.org/1999/xlink" width="612" height="792" viewBox="0 0 612 792"><image overflow="visible" width="639" height="225" xlink:href="Screen Shot 2016-05-31 at 2.01.09 PM.png" transform="translate(-14 283)"/><path fill="#FFF" d="M78.25 442l5.5-1.25 4.5-4.75 1.25-4v-5.25l-3.5-4.5-4.25-2.25h-11L68 425.5l-1.75 4.25v5l4.5 3.5M153.75 445.25l8.5-4.75 4.5-7.75 3-10 1.75-15.5-5.25-5-3.625-6.25-10.375 5.75L146.5 415l-2 11.75v9.5M305.5 458l9.75 1.5 10-4.5 9.75-5.25 4.75-8.25 2-9.25V406.5l-3-13-6.25-12-8.875-8.5-10.375-4.5-3.5-1.5-2.25-2.75-5.75 3.5-8.25 2.25-9 4.5-8 7.25-4.75 11.75-3.25 10-3.25 9.75v11.5l1.75 9.75 5.75 10.75 7 8 10.5 4.5 8.5 1.75M497.75 466l8.5-1.25 4.5-4.25 4.5 2.75 6.5-2.75 13-4 13-12.25 8.5-11 4.75-11 2.5-12.5 1-13.75-2.75-11.5L557 372l-3.75-11.5-8-9-9.5-6.75L530 342l-7.5-4.25-3 1.5-2.5-3.5-6.75 2.5-7-.75-5.5 2.75-8 5L480 351l-10.75 12.25-6.75 10.5-6 15.5-2 11.625V413l2 14 5.5 10.75 10.25 11.5"/></svg>